<svg width="512" height="512" viewBox="0 0 512 512" fill="none" xmlns="http://www.w3.org/2000/svg">
  <defs>
    <linearGradient id="shieldGrad" x1="90" y1="130" x2="420" y2="130" gradientUnits="userSpaceOnUse">
      <stop offset="0" stop-color="#0A8FF8"/>
      <stop offset="1" stop-color="#7A2DE6"/>
    </linearGradient>
  </defs>

  <path d="M256 42L423 102L389 315L256 468L123 315L89 102L256 42Z" fill="url(#shieldGrad)"/>
  <path d="M256 42L423 102L389 315L256 468L123 315L89 102L256 42Z" stroke="#08329A" stroke-width="10"/>

  <path d="M132 160H380L361 194H149L132 160Z" fill="white"/>
  <path d="M215 190H286L257 386H196L215 190Z" fill="white"/>
  <path d="M250 190H308L260 386H221L250 190Z" fill="#0B3EBC"/>

  <path d="M387 103L401 120L420 108L408 129L428 145L405 146L396 168L386 147L363 145L382 130L373 108L391 119L387 103Z" fill="white"/>

  <rect x="320" y="325" width="24" height="24" rx="4" fill="#2ED9FF"/>
  <rect x="352" y="313" width="20" height="20" rx="4" fill="#B05CFF"/>
  <rect x="377" y="293" width="16" height="16" rx="4" fill="white"/>

</svg>
